[Header]
FileType HTR
DataType HTRS
FileVersion 1
NumSegments 22
NumFrames 4
DataFrameRate 24
EulerRotationOrder ZYX
CalibrationUnits mm
RotationUnits Degrees
GlobalAxisofGravity Y
BoneLengthAxis Y
ScaleFactor 1.0
[SegmentNames&Hierarchy]
reference	GLOBAL
Hips	reference
Spine	Hips
Spine1	Spine
Neck	Spine1
Head	Neck
LeftShoulder	Spine1
LeftArm	LeftShoulder
LeftForeArm	LeftArm
LeftHand	LeftForeArm
RightShoulder	Spine1
RightArm	RightShoulder
RightForeArm	RightArm
RightHand	RightForeArm
LeftUpLeg	Hips
LeftLeg	LeftUpLeg
LeftFoot	LeftLeg
LeftToeBase	LeftFoot
RightUpLeg	Hips
RightLeg	RightUpLeg
RightFoot	RightLeg
RightToeBase	RightFoot
[BasePosition]
reference	0	0	0	0	0	0	1
Hips	0	0	0	0	0	0	1
Spine	0	0	0	-0	-90	0	1
Spine1	0	0	0	0	0	0	1
Neck	0	0	0	82.64767223	-82.64767223	-90	1
Head	0	0	0	-0	-90	0	1
LeftShoulder	0	0	0	0	0	0	1
LeftArm	0	0	0	0	0	0	1
LeftForeArm	0	0	0	0	0	0	1
LeftHand	0	0	0	0	0	0	1
RightShoulder	0	0	0	0	-0	180	1
RightArm	0	0	0	0	-0	180	1
RightForeArm	0	0	0	0	-0	180	1
RightHand	0	0	0	0	-0	180	1
LeftUpLeg	0	0	0	-0	90	0	1
LeftLeg	0	0	0	-0	90	0	1
LeftFoot	0	0	0	-23.42853957	23.42853957	-90	1
LeftToeBase	0	0	0	0	-0	-90	1
RightUpLeg	0	0	0	-0	90	0	1
RightLeg	0	0	0	-0	90	0	1
RightFoot	0	0	0	-23.42853957	23.42853957	-90	1
RightToeBase	0	0	0	0	-0	-90	1
[reference]
10	0	0	0	0	-0	0	1.0
11	0	0	0	0	-0	0	1.0
12	0	0	0	0	-0	0	1.0
13	0	0	0	0	-0	0	1.0
[Hips]
10	3.353209019	-0.4042399228	7.813674927	-1.767626762	-0.1238232255	-114.1711426	1.0
11	2.601299286	-0.3554547429	7.612418175	-4.941525459	0.2507257462	-113.4537964	1.0
12	2.150125265	-0.3336583972	7.501550198	-6.88574028	0.3387846351	-112.9866791	1.0
13	1.68174994	-0.3448899984	7.407450199	-8.265825272	0.1987575889	-112.076355	1.0
[Spine]
10	0	0	0.7457100153	58.38191605	84.27288055	72.41537476	1.0
11	0	0	0.7457100153	56.41249847	83.61386871	69.55474091	1.0
12	0	0	0.7457100153	57.75769806	82.91799927	69.68702698	1.0
13	0	0	0.7457100153	59.31404495	82.42276001	70.08933258	1.0
[Spine1]
10	0	0	2.140589952	10.13965416	1.392526627	1.865974903	1.0
11	0	0	2.140589952	7.947104454	0.9062346816	1.966641903	1.0
12	0	0	2.140589952	6.309711456	0.4372156858	2.144328833	1.0
13	0	0	2.140589952	3.873622417	0.2416556776	2.295673609	1.0
[Neck]
10	0	0	2.32246995	94.16732788	75.17720032	82.79351044	1.0
11	0	0	2.32246995	95.90016937	75.71330261	82.58665466	1.0
12	0	0	2.32246995	95.53436279	76.40725708	82.05245209	1.0
13	0	0	2.32246995	94.02619171	76.93904877	80.27266693	1.0
[Head]
10	0	-0.1818799973	1.409579992	-62.00481796	99.91256714	-53.96933746	1.0
11	0	-0.1818799973	1.409579992	-65.07785797	98.76661682	-58.65099716	1.0
12	0	-0.1818799973	1.409579992	-62.8637352	98.10187531	-57.73079681	1.0
13	0	-0.1818799973	1.409579992	-61.67954254	97.50279999	-58.01611328	1.0
[LeftShoulder]
10	0.3668199778	0.02662999928	1.946700096	-13.55300331	-5.923638344	-4.596743107	1.0
11	0.3668199778	0.02662999928	1.946700096	-15.3483839	-7.872692585	-5.725729942	1.0
12	0.3668199778	0.02662999928	1.946700096	-15.35007286	-9.311574936	-6.803001404	1.0
13	0.3668199778	0.02662999928	1.946700096	-15.4331131	-10.82748413	-7.617767334	1.0
[LeftArm]
10	1.140689969	0	0	24.26720238	74.12631226	-18.6522789	1.0
11	1.140689969	0	0	1.325306177	64.65313721	-48.00635147	1.0
12	1.140689969	0	0	-5.586935997	58.26249313	-56.71646118	1.0
13	1.140689969	0	0	-8.728619576	52.25572968	-61.78748322	1.0
[LeftForeArm]
10	2.749800205	0	0	-5.335334778	-13.58764839	-54.94045258	1.0
11	2.749800205	0	0	-0.3751024008	-22.53862381	-65.20597839	1.0
12	2.749800205	0	0	2.401053905	-25.96982002	-69.54420471	1.0
13	2.749800205	0	0	5.209562778	-29.33566856	-73.041008	1.0
[LeftHand]
10	2.295179844	0	0	-12.16399193	-3.340149879	-12.33557701	1.0
11	2.295179844	0	0	-14.64554977	-2.328822136	-11.56594563	1.0
12	2.295179844	0	0	-15.54925728	-2.391710997	-10.92255211	1.0
13	2.295179844	0	0	-16.50903511	-2.583751202	-9.819246292	1.0
[RightShoulder]
10	-0.3601199985	0.02662999928	1.946700096	-11.25536251	5.21807766	-170.47229	1.0
11	-0.3601199985	0.02662999928	1.946700096	-13.53468704	6.247797966	-168.2514648	1.0
12	-0.3601199985	0.02662999928	1.946700096	-13.97977638	7.362577438	-167.1326752	1.0
13	-0.3601199985	0.02662999928	1.946700096	-14.49482536	8.750171661	-166.7573853	1.0
[RightArm]
10	-1.140689969	0	0	-166.3801117	-103.8382034	37.38135147	1.0
11	-1.140689969	0	0	-182.4233551	-114.0653534	56.37507248	1.0
12	-1.140689969	0	0	-185.6376038	-120.5143661	61.23728561	1.0
13	-1.140689969	0	0	-188.1160736	-126.4744644	64.1989975	1.0
[RightForeArm]
10	-2.749800205	0	0	0.8022070527	17.15992737	-137.4149475	1.0
11	-2.749800205	0	0	7.051312447	28.13294983	-124.156311	1.0
12	-2.749800205	0	0	11.68185616	34.45557022	-117.5184784	1.0
13	-2.749800205	0	0	16.41568565	38.59310532	-111.8022537	1.0
[RightHand]
10	-2.295179844	0	0	-4.969592094	9.639181137	-167.7573547	1.0
11	-2.295179844	0	0	-7.000008583	11.47659969	-168.1545868	1.0
12	-2.295179844	0	0	-8.423996925	11.49577045	-168.5401001	1.0
13	-2.295179844	0	0	-9.226481438	10.7997818	-169.1194458	1.0
[LeftUpLeg]
10	0.9094099998	0	0	-34.09874725	-102.1033173	9.284620285	1.0
11	0.9094099998	0	0	-19.05887222	-102.806076	-6.281803131	1.0
12	0.9094099998	0	0	-17.48686218	-103.5236359	-7.669994831	1.0
13	0.9094099998	0	0	-23.28907776	-103.768219	-2.86366272	1.0
[LeftLeg]
10	0	0	-4.498080254	-17.70101166	-84.15988922	35.48832321	1.0
11	0	0	-4.498080254	16.34232903	-79.89972687	6.744155407	1.0
12	0	0	-4.498080254	39.10991287	-73.64794922	-10.30992317	1.0
13	0	0	-4.498080254	47.21524048	-64.77787781	-10.15744114	1.0
[LeftFoot]
10	0	0	-3.729400158	-53.79933167	-5.856733322	94.52087402	1.0
11	0	0	-3.729400158	-56.52710724	-5.998268127	102.1319199	1.0
12	0	0	-3.729400158	-55.09147644	-3.562274456	104.5877533	1.0
13	0	0	-3.729400158	-57.66753769	-12.13307285	115.1699753	1.0
[LeftToeBase]
10	0	-1.364109993	-0.5911099911	-1.999999995e-006	0	-1.999999995e-006	1.0
11	0	-1.364109993	-0.5911099911	-1.999999995e-006	0	-1.999999995e-006	1.0
12	0	-1.364109993	-0.5911099911	-1.999999995e-006	0	-1.999999995e-006	1.0
13	0	-1.364109993	-0.5911099911	-1.999999995e-006	0	-1.999999995e-006	1.0
[RightUpLeg]
10	-0.9094099998	0	0	-90.69493866	-99.16522217	112.7255249	1.0
11	-0.9094099998	0	0	-94.54310608	-102.7627716	125.2569885	1.0
12	-0.9094099998	0	0	-95.69776917	-106.6128387	131.6053009	1.0
13	-0.9094099998	0	0	-95.66976929	-112.7238541	136.0304871	1.0
[RightLeg]
10	0	0	-4.498080254	-87.50453186	-93.54384613	89.77046967	1.0
11	0	0	-4.498080254	-94.35321045	-94.19806671	95.99513245	1.0
12	0	0	-4.498080254	-96.39176941	-94.84342957	97.50602722	1.0
13	0	0	-4.498080254	-100.2300797	-95.77968597	100.9878464	1.0
[RightFoot]
10	0	0	-3.729400158	-61.76576233	-30.13793564	92.42756653	1.0
11	0	0	-3.729400158	-63.88303757	-31.86484909	99.39457703	1.0
12	0	0	-3.729400158	-64.1677475	-33.21115112	105.2458496	1.0
13	0	0	-3.729400158	-62.51215744	-34.17705917	112.2896347	1.0
[RightToeBase]
10	0	-1.364109993	-0.5911099911	1.999999995e-006	9.999999975e-007	1.999999995e-006	1.0
11	0	-1.364109993	-0.5911099911	1.999999995e-006	9.999999975e-007	1.999999995e-006	1.0
12	0	-1.364109993	-0.5911099911	1.999999995e-006	9.999999975e-007	1.999999995e-006	1.0
13	0	-1.364109993	-0.5911099911	1.999999995e-006	9.999999975e-007	1.999999995e-006	1.0
[EndOfFile]
